<svg width="1200" height="1200" viewBox="0 0 1200 1200" fill="none" xmlns="http://www.w3.org/2000/svg">
<g clip-path="url(#clip0)">
<rect width="1200" height="1200" fill="white"/>
<path d="M-93.1584 691.968C-91.529 689.906 -88.9965 687.607 -85.4012 684.935H1744.59C1741.23 689.21 1739.39 693.225 1739.47 697.479C1739.54 701.694 1741.5 705.686 1744.74 709.935H-85.3617C-88.7451 707.27 -91.2367 704.97 -92.9068 702.888C-94.6787 700.679 -95.3718 698.909 -95.4111 697.371C-95.4498 695.857 -94.8657 694.128 -93.1584 691.968Z" fill="#C4C4C4" stroke="black" stroke-width="5"/>
<path d="M153.463 1203.1C161.829 1203.06 170.253 1204.33 180.95 1207.09L180.95 1918.73C159.962 1915.05 146.894 1915.26 125.95 1918.76L125.95 1207.12C136.667 1204.5 145.095 1203.14 153.463 1203.1Z" fill="#C4C4C4" stroke="black" stroke-width="5"/>
<path d="M1446.75 1163.82C1446.82 1172.08 1444.64 1180.47 1439.81 1191.3L214.64 1191.3C217.74 1180.94 219.243 1172.4 219.191 1163.79C219.14 1155.18 217.536 1146.64 214.588 1136.3L1439.77 1136.3C1444.36 1147.16 1446.68 1155.55 1446.75 1163.82Z" fill="#C4C4C4" stroke="black" stroke-width="5"/>
<path d="M188.85 1201.2V1222.6H126.45L126.45 1163.8C126.45 1147.23 139.882 1133.8 156.45 1133.8H215.25V1196.2H193.85C191.089 1196.2 188.85 1198.44 188.85 1201.2Z" fill="#C4C4C4" stroke="black" stroke-width="5"/>
<path d="M229.228 1198.5H210.578C208.853 1198.5 207.56 1196.72 208.188 1194.98C212.526 1182.9 214.906 1172.95 215.096 1163.5C215.287 1154.01 213.266 1145.2 209.046 1135.4C208.221 1133.49 209.627 1131.5 211.425 1131.5H229.176C230.183 1131.5 231.075 1132.1 231.442 1133C236.546 1145.49 239.1 1155.32 239.149 1165.04C239.198 1174.75 236.748 1184.57 231.474 1197.04C231.103 1197.91 230.223 1198.5 229.228 1198.5Z" fill="#C4C4C4" stroke="black" stroke-width="5"/>
<path d="M276.462 1083.1C284.829 1083.06 293.253 1084.33 303.95 1087.09L303.95 1798.73C282.962 1795.05 269.894 1795.26 248.95 1798.76L248.95 1087.12C259.667 1084.5 268.094 1083.14 276.462 1083.1Z" fill="#C4C4C4" stroke="black" stroke-width="5"/>
<path d="M1569.75 1043.82C1569.82 1052.08 1567.64 1060.47 1562.81 1071.3L337.64 1071.3C340.74 1060.94 342.242 1052.4 342.191 1043.79C342.14 1035.18 340.536 1026.64 337.588 1016.3L1562.77 1016.3C1567.35 1027.16 1569.68 1035.55 1569.75 1043.82Z" fill="#C4C4C4" stroke="black" stroke-width="5"/>
<path d="M311.85 1081.2V1102.6H249.45V1043.8C249.45 1027.23 262.881 1013.8 279.45 1013.8H338.25V1076.2H316.85C314.089 1076.2 311.85 1078.44 311.85 1081.2Z" fill="#C4C4C4" stroke="black" stroke-width="5"/>
<path d="M352.227 1078.5H333.577C331.853 1078.5 330.56 1076.72 331.188 1074.98C335.526 1062.9 337.906 1052.95 338.096 1043.5C338.287 1034.01 336.266 1025.2 332.045 1015.4C331.22 1013.49 332.627 1011.5 334.425 1011.5H352.176C353.183 1011.5 354.075 1012.1 354.442 1013C359.546 1025.49 362.1 1035.32 362.149 1045.04C362.198 1054.75 359.748 1064.57 354.474 1077.04C354.103 1077.91 353.222 1078.5 352.227 1078.5Z" fill="#C4C4C4" stroke="black" stroke-width="5"/>
<path d="M247.15 1116.58V1097.93C247.15 1096.2 248.925 1094.91 250.674 1095.54C262.75 1099.88 272.704 1102.26 282.149 1102.45C291.637 1102.64 300.45 1100.62 310.246 1096.4C312.161 1095.57 314.15 1096.98 314.15 1098.77V1116.53C314.15 1117.53 313.547 1118.42 312.649 1118.79C300.163 1123.9 290.331 1126.45 280.611 1126.5C270.901 1126.55 261.077 1124.1 248.614 1118.82C247.737 1118.45 247.15 1117.57 247.15 1116.58Z" fill="#C4C4C4" stroke="black" stroke-width="5"/>
<path d="M443.746 967.541C452.113 967.499 460.537 968.769 471.234 971.53L471.234 1683.17C450.246 1679.49 437.178 1679.7 416.234 1683.2L416.234 971.557C426.95 968.937 435.378 967.582 443.746 967.541Z" fill="#C4C4C4" stroke="black" stroke-width="5"/>
<path d="M1737.03 928.261C1737.1 936.523 1734.93 944.906 1730.09 955.74L504.924 955.74C508.024 945.382 509.526 936.836 509.475 928.225C509.423 919.616 507.819 911.076 504.871 900.74L1730.05 900.74C1734.64 911.602 1736.96 919.991 1737.03 928.261Z" fill="#C4C4C4" stroke="black" stroke-width="5"/>
<path d="M479.134 965.64V987.04H416.734V928.24C416.734 911.671 430.165 898.24 446.734 898.24H505.534V960.64H484.134C481.372 960.64 479.134 962.878 479.134 965.64Z" fill="#C4C4C4" stroke="black" stroke-width="5"/>
<path d="M519.511 962.94H500.861C499.136 962.94 497.844 961.164 498.472 959.416C502.81 947.34 505.19 937.386 505.38 927.941C505.571 918.452 503.55 909.64 499.329 899.844C498.504 897.929 499.911 895.94 501.708 895.94H519.46C520.467 895.94 521.359 896.542 521.726 897.44C526.83 909.926 529.384 919.758 529.433 929.478C529.482 939.189 527.031 949.013 521.757 961.476C521.386 962.352 520.506 962.94 519.511 962.94Z" fill="#C4C4C4" stroke="black" stroke-width="5"/>
<path d="M414.434 1001.02V982.367C414.434 980.642 416.209 979.349 417.957 979.978C430.033 984.316 439.988 986.696 449.433 986.886C458.921 987.077 467.733 985.056 477.53 980.835C479.445 980.01 481.434 981.417 481.434 983.214V1000.97C481.434 1001.97 480.831 1002.86 479.933 1003.23C467.447 1008.34 457.615 1010.89 447.895 1010.94C438.185 1010.99 428.361 1008.54 415.898 1003.26C415.021 1002.89 414.434 1002.01 414.434 1001.02Z" fill="#C4C4C4" stroke="black" stroke-width="5"/>
<path d="M1089.41 -548.823C1097.77 -548.867 1106.19 -547.524 1116.9 -544.603L1116.9 2896.63C1095.92 2892.74 1082.84 2892.96 1061.9 2896.66L1061.9 -544.574C1072.63 -547.347 1081.05 -548.779 1089.41 -548.823Z" fill="#C4C4C4" stroke="black" stroke-width="5"/>
<path d="M865.367 -548.823C873.726 -548.867 882.147 -547.524 892.854 -544.603L892.854 2896.63C871.871 2892.74 858.791 2892.96 837.854 2896.66L837.854 -544.574C848.582 -547.347 857.007 -548.779 865.367 -548.823Z" fill="#C4C4C4" stroke="black" stroke-width="5"/>
<path d="M973.813 -522.986C982.172 -523.03 990.593 -521.687 1001.3 -518.765L1001.3 2922.46C980.317 2918.58 967.237 2918.8 946.3 2922.49L946.3 -518.737C957.028 -521.51 965.452 -522.941 973.813 -522.986Z" fill="#C4C4C4" stroke="black" stroke-width="5"/>
<path d="M521.595 88.501C529.972 88.4627 538.401 89.6283 549.084 92.1547L549.084 3078.89C528.089 3075.51 515.038 3075.71 494.084 3078.92L494.084 92.1805C504.785 89.7821 513.217 88.5394 521.595 88.501Z" fill="#C4C4C4" stroke="black" stroke-width="5"/>
<path d="M185.028 97.3C182.534 76.133 182.388 63.4354 185.013 42.3L527.255 42.3C525.459 63.3317 525.562 76.2902 527.268 97.3L185.028 97.3Z" fill="#C4C4C4" stroke="black" stroke-width="5"/>
<path d="M486.384 104H464.984V41.6L523.784 41.6C540.352 41.6 553.784 55.0315 553.784 71.6V130.4L491.384 130.4V109C491.384 106.239 489.145 104 486.384 104Z" fill="#C4C4C4" stroke="black" stroke-width="5"/>
<path d="M556.084 130.823V149.473C556.084 151.197 554.308 152.49 552.56 151.862C540.484 147.524 530.53 145.144 521.085 144.954C511.596 144.763 502.784 146.784 492.988 151.005C491.073 151.83 489.084 150.423 489.084 148.625V130.874C489.084 129.867 489.686 128.975 490.584 128.608C503.071 123.504 512.902 120.95 522.622 120.901C532.333 120.852 542.157 123.302 554.62 128.576C555.496 128.947 556.084 129.828 556.084 130.823Z" fill="#C4C4C4" stroke="black" stroke-width="5"/>
<path d="M464.561 106.3L445.911 106.3C444.186 106.3 442.893 104.525 443.522 102.776C447.86 90.7004 450.24 80.7464 450.43 71.3013C450.621 61.8128 448.6 53.0006 444.379 43.2043C443.554 41.2893 444.961 39.3 446.758 39.3L464.51 39.3C465.516 39.3 466.409 39.9027 466.776 40.8006C471.88 53.2868 474.434 63.1186 474.483 72.8387C474.532 82.5493 472.081 92.3731 466.807 104.836C466.436 105.713 465.556 106.3 464.561 106.3Z" fill="#C4C4C4" stroke="black" stroke-width="5"/>
<path d="M143.822 -1212.5C152.084 -1212.57 160.466 -1210.39 171.3 -1205.56L171.3 19.6099C160.942 16.5103 152.397 15.0076 143.785 15.059C135.177 15.1104 126.636 16.7145 116.3 19.6625L116.3 -1205.52C127.162 -1210.1 135.552 -1212.43 143.822 -1212.5Z" fill="#C4C4C4" stroke="black" stroke-width="5"/>
<path d="M181.2 37.4H202.6L202.6 99.8L143.8 99.8C127.232 99.8 113.8 86.3685 113.8 69.8L113.8 11L176.2 11V32.4C176.2 35.1614 178.439 37.4 181.2 37.4Z" fill="#C4C4C4" stroke="black" stroke-width="5"/>
<path d="M178.5 -2.97738V15.6726C178.5 17.3974 176.725 18.6903 174.976 18.0622C162.9 13.7236 152.946 11.3441 143.501 11.1539C134.013 10.9629 125.2 12.9839 115.404 17.2045C113.489 18.0296 111.5 16.6231 111.5 14.8253V-2.92594C111.5 -3.9327 112.103 -4.82486 113.001 -5.19193C125.487 -10.2963 135.319 -12.8503 145.039 -12.8993C154.749 -12.9482 164.573 -10.4977 177.036 -5.22361C177.913 -4.85268 178.5 -3.97249 178.5 -2.97738Z" fill="#C4C4C4" stroke="black" stroke-width="5"/>
<path d="M216.577 102.1H197.927C196.203 102.1 194.91 100.325 195.538 98.5763C199.876 86.5004 202.256 76.5463 202.446 67.1012C202.637 57.6127 200.616 48.8005 196.395 39.0043C195.57 37.0893 196.977 35.1 198.775 35.1H216.526C217.533 35.1 218.425 35.7026 218.792 36.6005C223.896 49.0867 226.45 58.9186 226.499 68.6387C226.548 78.3492 224.098 88.173 218.824 100.636C218.453 101.513 217.573 102.1 216.577 102.1Z" fill="#C4C4C4" stroke="black" stroke-width="5"/>
<path d="M636.195 181.666C644.572 181.627 653.001 182.793 663.684 185.32L663.684 3172.06C642.689 3168.68 629.638 3168.87 608.684 3172.08L608.684 185.345C619.385 182.947 627.817 181.704 636.195 181.666Z" fill="#C4C4C4" stroke="black" stroke-width="5"/>
<path d="M299.628 190.465C297.134 169.298 296.988 156.6 299.613 135.465L641.855 135.465C640.059 156.496 640.162 169.455 641.868 190.465L299.628 190.465Z" fill="#C4C4C4" stroke="black" stroke-width="5"/>
<path d="M600.984 197.165H579.584V134.765H638.384C654.952 134.765 668.384 148.196 668.384 164.765V223.565L605.984 223.565V202.165C605.984 199.403 603.745 197.165 600.984 197.165Z" fill="#C4C4C4" stroke="black" stroke-width="5"/>
<path d="M670.684 223.987V242.637C670.684 244.362 668.908 245.655 667.16 245.027C655.084 240.688 645.13 238.309 635.685 238.119C626.197 237.928 617.384 239.949 607.588 244.169C605.673 244.994 603.684 243.588 603.684 241.79V224.039C603.684 223.032 604.286 222.14 605.184 221.773C617.671 216.669 627.502 214.115 637.222 214.066C646.933 214.017 656.757 216.467 669.22 221.741C670.096 222.112 670.684 222.992 670.684 223.987Z" fill="#C4C4C4" stroke="black" stroke-width="5"/>
<path d="M579.161 199.465H560.511C558.786 199.465 557.493 197.689 558.122 195.941C562.46 183.865 564.84 173.911 565.03 164.466C565.221 154.978 563.2 146.165 558.979 136.369C558.154 134.454 559.561 132.465 561.358 132.465H579.11C580.116 132.465 581.009 133.067 581.376 133.965C586.48 146.452 589.034 156.283 589.083 166.004C589.132 175.714 586.681 185.538 581.407 198.001C581.036 198.878 580.156 199.465 579.161 199.465Z" fill="#C4C4C4" stroke="black" stroke-width="5"/>
<path d="M258.422 -1119.33C266.684 -1119.4 275.066 -1117.23 285.9 -1112.39L285.9 112.775C275.542 109.675 266.997 108.172 258.385 108.224C249.777 108.275 241.236 109.879 230.9 112.827L230.9 -1112.35C241.762 -1116.94 250.152 -1119.26 258.422 -1119.33Z" fill="#C4C4C4" stroke="black" stroke-width="5"/>
<path d="M295.8 130.565H317.2V192.965H258.4C241.832 192.965 228.4 179.533 228.4 162.965V104.165L290.8 104.165V125.565C290.8 128.326 293.039 130.565 295.8 130.565Z" fill="#C4C4C4" stroke="black" stroke-width="5"/>
<path d="M293.1 90.1874V108.837C293.1 110.562 291.325 111.855 289.576 111.227C277.5 106.888 267.546 104.509 258.101 104.319C248.613 104.128 239.801 106.149 230.004 110.369C228.089 111.194 226.1 109.788 226.1 107.99V90.2389C226.1 89.2321 226.703 88.3399 227.601 87.9729C240.087 82.8685 249.919 80.3145 259.639 80.2655C269.349 80.2166 279.173 82.6671 291.636 87.9412C292.513 88.3121 293.1 89.1923 293.1 90.1874Z" fill="#C4C4C4" stroke="black" stroke-width="5"/>
<path d="M331.177 195.265H312.527C310.803 195.265 309.51 193.489 310.138 191.741C314.476 179.665 316.856 169.711 317.046 160.266C317.237 150.778 315.216 141.965 310.996 132.169C310.17 130.254 311.577 128.265 313.375 128.265H331.126C332.133 128.265 333.025 128.867 333.392 129.765C338.496 142.252 341.05 152.083 341.099 161.803C341.148 171.514 338.698 181.338 333.424 193.801C333.053 194.677 332.173 195.265 331.177 195.265Z" fill="#C4C4C4" stroke="black" stroke-width="5"/>
<path d="M756.195 297.466C764.572 297.428 773.001 298.593 783.684 301.12L783.684 3287.86C762.689 3284.48 749.638 3284.67 728.684 3287.88L728.684 301.145C739.385 298.747 747.817 297.504 756.195 297.466Z" fill="#C4C4C4" stroke="black" stroke-width="5"/>
<path d="M419.628 306.265C417.134 285.098 416.988 272.4 419.613 251.265L761.855 251.265C760.059 272.297 760.162 285.255 761.868 306.265L419.628 306.265Z" fill="#C4C4C4" stroke="black" stroke-width="5"/>
<path d="M720.984 312.965H699.584V250.565H758.384C774.952 250.565 788.384 263.996 788.384 280.565V339.365H725.984V317.965C725.984 315.203 723.745 312.965 720.984 312.965Z" fill="#C4C4C4" stroke="black" stroke-width="5"/>
<path d="M790.684 339.788V358.437C790.684 360.162 788.908 361.455 787.16 360.827C775.084 356.489 765.13 354.109 755.685 353.919C746.197 353.728 737.384 355.749 727.588 359.969C725.673 360.794 723.684 359.388 723.684 357.59V339.839C723.684 338.832 724.286 337.94 725.184 337.573C737.671 332.469 747.502 329.915 757.222 329.866C766.933 329.817 776.757 332.267 789.22 337.541C790.096 337.912 790.684 338.792 790.684 339.788Z" fill="#C4C4C4" stroke="black" stroke-width="5"/>
<path d="M699.161 315.265H680.511C678.786 315.265 677.493 313.489 678.122 311.741C682.46 299.665 684.84 289.711 685.03 280.266C685.221 270.778 683.2 261.965 678.979 252.169C678.154 250.254 679.561 248.265 681.358 248.265H699.11C700.116 248.265 701.009 248.868 701.376 249.765C706.48 262.252 709.034 272.083 709.083 281.804C709.132 291.514 706.681 301.338 701.407 313.801C701.036 314.678 700.156 315.265 699.161 315.265Z" fill="#C4C4C4" stroke="black" stroke-width="5"/>
<path d="M378.422 -1003.53C386.684 -1003.6 395.066 -1001.43 405.9 -996.591L405.9 228.575C395.542 225.475 386.997 223.972 378.385 224.024C369.777 224.075 361.236 225.679 350.9 228.627L350.9 -996.553C361.762 -1001.14 370.152 -1003.46 378.422 -1003.53Z" fill="#C4C4C4" stroke="black" stroke-width="5"/>
<path d="M415.8 246.365H437.2V308.765H378.4C361.832 308.765 348.4 295.333 348.4 278.765V219.965L410.8 219.965V241.365C410.8 244.126 413.039 246.365 415.8 246.365Z" fill="#C4C4C4" stroke="black" stroke-width="5"/>
<path d="M413.1 205.987V224.637C413.1 226.362 411.325 227.655 409.576 227.027C397.5 222.688 387.546 220.309 378.101 220.119C368.613 219.928 359.801 221.949 350.004 226.169C348.089 226.994 346.1 225.588 346.1 223.79V206.039C346.1 205.032 346.703 204.14 347.601 203.773C360.087 198.669 369.919 196.115 379.639 196.066C389.349 196.017 399.173 198.467 411.636 203.741C412.513 204.112 413.1 204.992 413.1 205.987Z" fill="#C4C4C4" stroke="black" stroke-width="5"/>
<path d="M451.177 311.065H432.527C430.803 311.065 429.51 309.289 430.138 307.541C434.476 295.465 436.856 285.511 437.046 276.066C437.237 266.578 435.216 257.765 430.996 247.969C430.17 246.054 431.577 244.065 433.375 244.065H451.126C452.133 244.065 453.025 244.667 453.392 245.565C458.496 258.052 461.05 267.883 461.099 277.604C461.148 287.314 458.698 297.138 453.424 309.601C453.053 310.477 452.173 311.065 451.177 311.065Z" fill="#C4C4C4" stroke="black" stroke-width="5"/>
<path d="M1195.79 769.691C1187.42 769.733 1179 768.462 1168.3 765.702V54.0636C1189.29 57.7441 1202.36 57.5315 1223.3 54.0353V765.675C1212.58 768.294 1204.16 769.649 1195.79 769.691Z" fill="#C4C4C4" stroke="black" stroke-width="5"/>
<path d="M-97.4984 808.97C-97.5692 800.708 -95.3929 792.326 -90.5561 781.492H1134.61C1131.51 791.85 1130.01 800.395 1130.06 809.007C1130.11 817.615 1131.71 826.156 1134.66 836.492H-90.518C-95.1049 825.63 -97.4276 817.24 -97.4984 808.97Z" fill="#C4C4C4" stroke="black" stroke-width="5"/>
<path d="M1160.4 771.592V750.192H1222.8V808.992C1222.8 825.56 1209.37 838.992 1192.8 838.992H1134V776.592H1155.4C1158.16 776.592 1160.4 774.353 1160.4 771.592Z" fill="#C4C4C4" stroke="black" stroke-width="5"/>
<path d="M1120.02 774.292H1138.67C1140.4 774.292 1141.69 776.067 1141.06 777.816C1136.72 789.892 1134.34 799.846 1134.15 809.291C1133.96 818.779 1135.98 827.591 1140.2 837.388C1141.03 839.303 1139.62 841.292 1137.83 841.292H1120.07C1119.07 841.292 1118.18 840.689 1117.81 839.791C1112.7 827.305 1110.15 817.473 1110.1 807.753C1110.05 798.043 1112.5 788.219 1117.78 775.756C1118.15 774.879 1119.03 774.292 1120.02 774.292Z" fill="#C4C4C4" stroke="black" stroke-width="5"/>
<path d="M1225.1 736.214V754.864C1225.1 756.589 1223.32 757.882 1221.58 757.254C1209.5 752.915 1199.55 750.536 1190.1 750.346C1180.61 750.155 1171.8 752.176 1162 756.396C1160.09 757.221 1158.1 755.815 1158.1 754.017V736.266C1158.1 735.259 1158.7 734.367 1159.6 734C1172.09 728.896 1181.92 726.342 1191.64 726.293C1201.35 726.244 1211.17 728.694 1223.64 733.968C1224.51 734.339 1225.1 735.219 1225.1 736.214Z" fill="#C4C4C4" stroke="black" stroke-width="5"/>
<path d="M1225 41.6714V63.0714L1162.6 63.0714V4.2714C1162.6 -12.2971 1176.03 -25.7286 1192.6 -25.7286L1251.4 -25.7286V36.6714H1230C1227.24 36.6714 1225 38.91 1225 41.6714Z" fill="#C4C4C4" stroke="black" stroke-width="5"/>
<path d="M1227.3 63.494V82.144C1227.3 83.8688 1225.52 85.1617 1223.78 84.5336C1211.7 80.195 1201.75 77.8155 1192.3 77.6253C1182.81 77.4343 1174 79.4553 1164.2 83.6759C1162.29 84.501 1160.3 83.0945 1160.3 81.2967V63.5455C1160.3 62.5387 1160.9 61.6465 1161.8 61.2795C1174.29 56.1751 1184.12 53.6211 1193.84 53.5721C1203.55 53.5232 1213.37 55.9737 1225.84 61.2478C1226.71 61.6187 1227.3 62.4989 1227.3 63.494Z" fill="#C4C4C4" stroke="black" stroke-width="5"/>
<path d="M1116.05 661.942C1094.84 665.77 1082.22 665.993 1061.05 661.963V136.728C1082.06 139.461 1095.08 139.304 1116.05 136.708V661.942Z" fill="#C4C4C4" stroke="black" stroke-width="5"/>
<path d="M-193.744 704.179C-193.815 695.916 -191.638 687.534 -186.802 676.7H1038.36C1035.26 687.058 1033.76 695.603 1033.81 704.215C1033.86 712.823 1035.47 721.364 1038.42 731.7H-186.764C-191.35 720.838 -193.673 712.448 -193.744 704.179Z" fill="#C4C4C4" stroke="black" stroke-width="5"/>
<path d="M1056.15 666.8V645.4H1118.55V704.2C1118.55 720.768 1105.12 734.2 1088.55 734.2H1029.75V671.8H1051.15C1053.92 671.8 1056.15 669.561 1056.15 666.8Z" fill="#C4C4C4" stroke="black" stroke-width="5"/>
<path d="M1015.78 669.5H1034.43C1036.15 669.5 1037.44 671.275 1036.82 673.024C1032.48 685.1 1030.1 695.054 1029.91 704.499C1029.72 713.987 1031.74 722.799 1035.96 732.596C1036.78 734.511 1035.38 736.5 1033.58 736.5H1015.83C1014.82 736.5 1013.93 735.897 1013.56 734.999C1008.46 722.513 1005.9 712.681 1005.86 702.961C1005.81 693.251 1008.26 683.427 1013.53 670.964C1013.9 670.087 1014.78 669.5 1015.78 669.5Z" fill="#C4C4C4" stroke="black" stroke-width="5"/>
<path d="M1120.85 631.423V650.073C1120.85 651.797 1119.08 653.09 1117.33 652.462C1105.25 648.124 1095.3 645.744 1085.86 645.554C1076.37 645.363 1067.55 647.384 1057.76 651.605C1055.84 652.43 1053.85 651.023 1053.85 649.225V631.474C1053.85 630.467 1054.46 629.575 1055.35 629.208C1067.84 624.104 1077.67 621.55 1087.39 621.501C1097.1 621.452 1106.93 623.902 1119.39 629.176C1120.27 629.547 1120.85 630.427 1120.85 631.423Z" fill="#C4C4C4" stroke="black" stroke-width="5"/>
<path d="M1122.75 112.471V133.871H1060.35V75.0713C1060.35 58.5028 1073.79 45.0713 1090.35 45.0713L1149.15 45.0713V107.471H1127.75C1124.99 107.471 1122.75 109.71 1122.75 112.471Z" fill="#C4C4C4" stroke="black" stroke-width="5"/>
<path d="M1149.58 42.7712H1168.23C1169.95 42.7712 1171.24 44.5467 1170.62 46.2949C1166.28 58.3709 1163.9 68.3249 1163.71 77.77C1163.52 87.2585 1165.54 96.0707 1169.76 105.867C1170.58 107.782 1169.18 109.771 1167.38 109.771H1149.63C1148.62 109.771 1147.73 109.169 1147.36 108.271C1142.26 95.7845 1139.7 85.9527 1139.66 76.2325C1139.61 66.522 1142.06 56.6982 1147.33 44.2351C1147.7 43.3586 1148.58 42.7712 1149.58 42.7712Z" fill="#C4C4C4" stroke="black" stroke-width="5"/>
<path d="M1125.05 134.294V152.944C1125.05 154.669 1123.28 155.962 1121.53 155.334C1109.45 150.995 1099.5 148.615 1090.06 148.425C1080.57 148.234 1071.76 150.255 1061.96 154.476C1060.04 155.301 1058.05 153.894 1058.05 152.097V134.345C1058.05 133.339 1058.66 132.446 1059.56 132.079C1072.04 126.975 1081.87 124.421 1091.59 124.372C1101.3 124.323 1111.13 126.774 1123.59 132.048C1124.47 132.419 1125.05 133.299 1125.05 134.294Z" fill="#C4C4C4" stroke="black" stroke-width="5"/>
<path d="M1146.38 105.868C1143.9 84.7012 1143.75 72.003 1146.37 50.8679H1487.26C1485.47 71.8997 1485.57 84.8578 1487.27 105.868H1146.38Z" fill="#C4C4C4" stroke="black" stroke-width="5"/>
<path d="M994.421 260.316C991.936 239.149 991.79 226.451 994.405 205.316H1335.3C1333.51 226.348 1333.61 239.306 1335.31 260.316H994.421Z" fill="#C4C4C4" stroke="black" stroke-width="5"/>
<path d="M1001.3 569.372C980.133 571.866 967.435 572.012 946.3 569.387V227.145C967.332 228.941 980.29 228.838 1001.3 227.132V569.372Z" fill="#C4C4C4" stroke="black" stroke-width="5"/>
<path d="M1008 268.016V289.416H945.6V230.616C945.6 214.048 959.031 200.616 975.6 200.616H1034.4V263.016H1013C1010.24 263.016 1008 265.255 1008 268.016Z" fill="#C4C4C4" stroke="black" stroke-width="5"/>
<path d="M1034.82 198.316H1053.47C1055.2 198.316 1056.49 200.092 1055.86 201.84C1051.52 213.916 1049.14 223.87 1048.95 233.315C1048.76 242.803 1050.78 251.616 1055 261.412C1055.83 263.327 1054.42 265.316 1052.63 265.316H1034.87C1033.87 265.316 1032.98 264.714 1032.61 263.816C1027.5 251.329 1024.95 241.498 1024.9 231.777C1024.85 222.067 1027.3 212.243 1032.58 199.78C1032.95 198.903 1033.83 198.316 1034.82 198.316Z" fill="#C4C4C4" stroke="black" stroke-width="5"/>
<path d="M1010.3 289.839V308.489C1010.3 310.214 1008.52 311.506 1006.78 310.878C994.7 306.54 984.746 304.16 975.301 303.97C965.813 303.779 957.001 305.8 947.204 310.021C945.289 310.846 943.3 309.439 943.3 307.642V289.89C943.3 288.883 943.903 287.991 944.801 287.624C957.287 282.52 967.119 279.966 976.839 279.917C986.549 279.868 996.373 282.319 1008.84 287.593C1009.71 287.964 1010.3 288.844 1010.3 289.839Z" fill="#C4C4C4" stroke="black" stroke-width="5"/>
<path d="M-308.498 610.578C-308.569 602.316 -306.393 593.934 -301.556 583.1H923.61C920.51 593.458 919.008 602.003 919.059 610.615C919.11 619.223 920.714 627.764 923.662 638.1H-301.518C-306.105 627.238 -308.428 618.848 -308.498 610.578Z" fill="#C4C4C4" stroke="black" stroke-width="5"/>
<path d="M941.4 573.2V551.8H1003.8V610.6C1003.8 627.168 990.369 640.6 973.8 640.6H915V578.2H936.4C939.161 578.2 941.4 575.961 941.4 573.2Z" fill="#C4C4C4" stroke="black" stroke-width="5"/>
<path d="M901.023 575.9H919.673C921.397 575.9 922.69 577.675 922.062 579.424C917.724 591.5 915.344 601.454 915.154 610.899C914.963 620.387 916.984 629.199 921.205 638.996C922.03 640.911 920.623 642.9 918.825 642.9H901.074C900.067 642.9 899.175 642.297 898.808 641.399C893.704 628.913 891.15 619.081 891.101 609.361C891.052 599.651 893.502 589.827 898.776 577.364C899.147 576.487 900.028 575.9 901.023 575.9Z" fill="#C4C4C4" stroke="black" stroke-width="5"/>
<path d="M1006.1 537.823V556.472C1006.1 558.197 1004.32 559.49 1002.58 558.862C990.5 554.524 980.546 552.144 971.101 551.954C961.613 551.763 952.8 553.784 943.004 558.004C941.089 558.829 939.1 557.423 939.1 555.625V537.874C939.1 536.867 939.703 535.975 940.601 535.608C953.087 530.504 962.919 527.95 972.639 527.901C982.349 527.852 992.173 530.302 1004.64 535.576C1005.51 535.947 1006.1 536.827 1006.1 537.823Z" fill="#C4C4C4" stroke="black" stroke-width="5"/>
<path d="M-35.4983 431.232C-35.5742 422.991 -33.2339 414.616 -28.0081 403.755H1291.07C1287.74 414.098 1286.12 422.648 1286.18 431.271C1286.23 439.889 1287.96 448.434 1291.13 458.755H-27.9688C-32.9236 447.865 -35.4222 439.482 -35.4983 431.232Z" fill="#C4C4C4" stroke="black" stroke-width="5"/>
<path d="M904.421 359.535C901.936 338.368 901.79 325.67 904.405 304.535H1245.3C1243.51 325.567 1243.61 338.525 1245.31 359.535H904.421Z" fill="#C4C4C4" stroke="black" stroke-width="5"/>
<path d="M892.7 481.352C871.6 482.061 858.791 482.103 837.7 481.356V386.964C858.761 387.48 871.645 387.451 892.7 386.96V481.352Z" fill="#C4C4C4" stroke="black" stroke-width="5"/>
<path d="M-417.098 521.179C-417.169 512.916 -414.993 504.534 -410.156 493.7H815.01C811.91 504.058 810.408 512.603 810.459 521.215C810.51 529.823 812.115 538.364 815.062 548.7H-410.118C-414.705 537.838 -417.028 529.448 -417.098 521.179Z" fill="#C4C4C4" stroke="black" stroke-width="5"/>
<path d="M832.8 483.8V462.4H895.2V521.2C895.2 537.768 881.769 551.2 865.2 551.2H806.4V488.8H827.8C830.561 488.8 832.8 486.561 832.8 483.8Z" fill="#C4C4C4" stroke="black" stroke-width="5"/>
<path d="M792.423 486.5H811.073C812.797 486.5 814.09 488.275 813.462 490.024C809.124 502.1 806.744 512.054 806.554 521.499C806.363 530.987 808.384 539.799 812.605 549.596C813.43 551.511 812.023 553.5 810.225 553.5H792.474C791.467 553.5 790.575 552.897 790.208 551.999C785.104 539.513 782.55 529.681 782.501 519.961C782.452 510.251 784.902 500.427 790.176 487.964C790.547 487.087 791.428 486.5 792.423 486.5Z" fill="#C4C4C4" stroke="black" stroke-width="5"/>
<path d="M897.5 448.423V467.073C897.5 468.797 895.725 470.09 893.976 469.462C881.9 465.124 871.946 462.744 862.501 462.554C853.013 462.363 844.201 464.384 834.404 468.605C832.489 469.43 830.5 468.023 830.5 466.225V448.474C830.5 447.467 831.103 446.575 832.001 446.208C844.487 441.104 854.319 438.55 864.039 438.501C873.749 438.452 883.573 440.902 896.036 446.176C896.913 446.547 897.5 447.427 897.5 448.423Z" fill="#C4C4C4" stroke="black" stroke-width="5"/>
<path d="M896.2 367.2V388.6H833.8V329.8C833.8 313.232 847.231 299.8 863.8 299.8H922.6V362.2H901.2C898.439 362.2 896.2 364.439 896.2 367.2Z" fill="#C4C4C4" stroke="black" stroke-width="5"/>
<path d="M923.023 297.5H941.673C943.397 297.5 944.69 299.275 944.062 301.024C939.724 313.1 937.344 323.054 937.154 332.499C936.963 341.987 938.984 350.799 943.205 360.596C944.03 362.511 942.623 364.5 940.825 364.5H923.074C922.067 364.5 921.175 363.897 920.808 362.999C915.704 350.513 913.15 340.681 913.101 330.961C913.052 321.251 915.502 311.427 920.776 298.964C921.147 298.087 922.028 297.5 923.023 297.5Z" fill="#C4C4C4" stroke="black" stroke-width="5"/>
<path d="M898.5 389.023V407.673C898.5 409.397 896.725 410.69 894.976 410.062C882.9 405.724 872.946 403.344 863.501 403.154C854.013 402.963 845.201 404.984 835.404 409.205C833.489 410.03 831.5 408.623 831.5 406.825V389.074C831.5 388.067 832.103 387.175 833.001 386.808C845.487 381.704 855.319 379.15 865.039 379.101C874.749 379.052 884.573 381.502 897.036 386.776C897.913 387.147 898.5 388.028 898.5 389.023Z" fill="#C4C4C4" stroke="black" stroke-width="5"/>
</g>
<defs>
<clipPath id="clip0">
<rect width="1200" height="1200" fill="white"/>
</clipPath>
</defs>
</svg>
